 <svg  version="1.0" xmlns="http://www.w3.org/2000/svg"  width="225.000000pt" height="225.000000pt" viewBox="0 0 225.000000 225.000000"  preserveAspectRatio="xMidYMid meet">  <g transform="translate(0.000000,225.000000) scale(0.100000,-0.100000)" fill="#007acb" stroke="none"> <path d="M0 1125 l0 -1125 1125 0 1125 0 0 1125 0 1125 -1125 0 -1125 0 0 -1125z m1739 289 c40 -11 68 -30 112 -73 32 -31 59 -62 59 -69 0 -13 -74 -70 -128 -99 -33 -18 -34 -18 -55 7 -36 42 -69 60 -110 60 -50 0 -85 -24 -93 -65 -11 -63 10 -84 170 -163 164 -80 223 -127 255 -201 72 -168 2 -339 -164 -400 -53 -20 -74 -22 -180 -19 -140 5 -201 27 -279 98 -43 40 -93 107 -85 114 2 2 41 25 87 51 l83 47 49 -51 c52 -52 94 -71 163 -71 44 0 96 20 117 45 18 22 17 89 -1 112 -8 9 -77 47 -154 84 -160 77 -212 117 -249 191 -37 74 -37 196 -1 267 48 96 146 150 276 150 41 1 99 -6 128 -15z m-549 -89 l0 -95 -145 0 -145 0 0 -414 c0 -368 -2 -415 -16 -420 -20 -8 -118 -8 -166 0 l-38 7 0 413 0 414 -145 0 -145 0 0 95 0 95 400 0 400 0 0 -95z"/> </g> </svg> 