<?xml version="1.0" standalone="no"?>
<!DOCTYPE svg PUBLIC "-//W3C//DTD SVG 20010904//EN"
 "http://www.w3.org/TR/2001/REC-SVG-20010904/DTD/svg10.dtd">
<svg version="1.0" xmlns="http://www.w3.org/2000/svg"
 width="225.000000pt" height="225.000000pt" viewBox="0 0 225.000000 225.000000"
 preserveAspectRatio="xMidYMid meet">

<g transform="translate(0.000000,225.000000) scale(0.100000,-0.100000)"
fill="#764abc" stroke="none">
<path d="M1010 1932 c-201 -53 -345 -232 -390 -488 -18 -99 -8 -287 20 -384
12 -41 41 -116 64 -165 34 -72 41 -95 33 -112 -14 -33 1 -93 32 -124 59 -59
157 -42 195 34 36 75 -9 160 -94 173 -42 7 -43 8 -81 89 -56 119 -72 198 -72
345 -1 145 16 219 70 323 66 125 157 193 288 216 131 22 229 -29 317 -164 34
-52 64 -131 82 -215 4 -21 16 -29 57 -42 l52 -17 -7 54 c-16 137 -86 287 -176
373 -75 72 -199 123 -293 121 -18 0 -61 -8 -97 -17z"/>
<path d="M948 1412 c-30 -18 -58 -67 -58 -102 0 -36 31 -90 61 -105 15 -8 47
-15 70 -15 34 0 47 6 76 35 33 33 39 35 103 35 328 0 657 -238 712 -513 28
-146 -74 -308 -227 -358 -60 -20 -198 -15 -270 9 l-59 21 -49 -37 -48 -37 39
-17 c107 -47 271 -63 377 -38 123 30 252 125 300 221 34 67 48 163 35 245 -21
131 -70 224 -174 333 -158 164 -343 248 -594 272 -106 10 -119 13 -149 40 -40
34 -101 39 -145 11z"/>
<path d="M439 1104 c-123 -116 -183 -247 -183 -399 0 -144 59 -267 160 -334
92 -61 240 -98 339 -86 298 38 535 185 675 418 34 56 53 78 77 86 45 17 76 64
76 115 0 52 -23 89 -70 111 -104 49 -209 -62 -158 -168 17 -36 17 -37 -11 -84
-38 -67 -156 -186 -236 -239 -153 -102 -274 -139 -431 -132 -110 5 -183 34
-241 98 -67 74 -81 113 -81 225 0 95 2 103 35 165 19 36 60 91 91 122 l57 58
-10 42 c-6 24 -14 47 -19 52 -4 5 -36 -18 -70 -50z"/>
</g>
</svg>
